<?xml version="1.0" encoding="utf-8"?>
<!-- Generator: Adobe Illustrator 15.0.2, SVG Export Plug-In . SVG Version: 6.00 Build 0)  -->
<!DOCTYPE svg PUBLIC "-//W3C//DTD SVG 1.1//EN" "http://www.w3.org/Graphics/SVG/1.1/DTD/svg11.dtd">
<svg version="1.1" id="full-logo" xmlns="http://www.w3.org/2000/svg" xmlns:xlink="http://www.w3.org/1999/xlink" x="0px" y="0px"
	 width="237.022px" height="48.745px" viewBox="0 0 237.022 48.745" enable-background="new 0 0 237.022 48.745"
	 xml:space="preserve">
<path fill="#4E9D2D" d="M21.466,23.77c0-9.512,4.642-17.744,18.455-17.744C39.921,15.559,33.649,23.77,21.466,23.77"/>
<path fill="#4E9D2D" d="M43.597,48.745c2.587,0,4.575-0.368,6.617-1.12c0-7.528-4.49-12.907-12.423-16.783
	c-6.069-3.044-13.542-4.62-20.355-4.62C20.425,17.248,18.246,6.112,15.349,0c-3.21,6.404-5.214,17.382-2.131,26.313
	c-6.053,0.441-10.854,3.078-12.885,6.555c-0.152,0.265-0.461,0.831-0.276,0.927c0.145,0.077,0.379-0.159,0.523-0.292
	c2.188-2.024,5.083-3.011,7.864-3.011c6.426,0,10.961,5.333,14.166,8.536C29.499,45.917,36.233,48.759,43.597,48.745"/>
<g>
	<path d="M70.14,13.392l-3.35,1.716c-0.168,0.084-0.335,0.209-0.502,0.209c-0.126,0-0.252-0.083-0.336-0.293
		c-0.753-1.8-1.842-2.47-2.972-2.47h-2.763c-1.633,0-3.016,1.381-3.016,3.014v12.393c0,1.633,1.383,3.014,3.016,3.014h2.051
		c1.675,0,2.973-1.339,2.973-3.014v-1.968c0-0.293-0.126-0.418-0.419-0.418h-3.936c-0.293,0-0.419-0.126-0.419-0.419v-3.559
		c0-0.293,0.126-0.418,0.419-0.418h8.751c0.293,0,0.418,0.125,0.418,0.418v6.364c0,4.354-3.057,7.41-7.787,7.41h-2.051
		c-4.773,0-7.787-3.056-7.787-7.41V15.569c0-4.354,3.014-7.41,7.787-7.41h2.763c3.475,0,5.358,1.423,6.614,3.391
		c0.377,0.628,0.796,1.298,0.796,1.549C70.391,13.225,70.308,13.308,70.14,13.392z"/>
	<path d="M83.454,34.953h-9.42c-0.293,0-0.42-0.125-0.42-0.418V8.996c0-0.293,0.127-0.419,0.42-0.419h9.42
		c4.771,0,7.787,3.057,7.787,7.788v0.418c0,1.549-1.006,3.349-2.22,4.521c-0.126,0.083-0.167,0.209-0.167,0.293
		c0,0.084,0.041,0.209,0.167,0.293c1.214,1.172,2.22,3.182,2.22,4.731v0.628C91.241,31.98,88.226,34.953,83.454,34.953z
		 M86.468,15.988c0-1.633-1.382-3.015-3.014-3.015h-4.605c-0.293,0-0.419,0.126-0.419,0.419v5.568c0,0.293,0.126,0.419,0.419,0.419
		h4.605c1.632,0,3.014-1.382,3.014-3.014V15.988z M86.468,26.747c0-1.674-1.34-2.972-3.014-2.972h-4.605
		c-0.293,0-0.419,0.125-0.419,0.418v5.945c0,0.293,0.126,0.418,0.419,0.418h4.605c1.632,0,3.014-1.298,3.014-3.014V26.747z"/>
	<path d="M99.614,34.953h-3.977c-0.293,0-0.419-0.125-0.419-0.418V8.996c0-0.293,0.126-0.419,0.419-0.419h3.977
		c0.293,0,0.419,0.126,0.419,0.419v25.539C100.033,34.828,99.907,34.953,99.614,34.953z"/>
	<path d="M120.506,12.973h-9.964c-0.293,0-0.419,0.126-0.419,0.419v5.568c0,0.293,0.126,0.419,0.419,0.419h8.164
		c0.293,0,0.418,0.125,0.418,0.418v3.559c0,0.293-0.125,0.419-0.418,0.419h-8.164c-0.293,0-0.419,0.125-0.419,0.418v10.341
		c0,0.293-0.126,0.418-0.419,0.418h-3.977c-0.293,0-0.419-0.125-0.419-0.418V8.996c0-0.293,0.126-0.419,0.419-0.419h14.778
		c0.294,0,0.419,0.126,0.419,0.419v3.559C120.925,12.848,120.8,12.973,120.506,12.973z"/>
</g>
<line fill="none" stroke="#000000" stroke-width="0.5" stroke-miterlimit="10" x1="128.91" y1="3.902" x2="128.91" y2="38.886"/>
<g>
	<path d="M140.724,17.722h-0.441c-1.537,0-2.52-0.968-2.52-2.377v-4.498c0-1.395,0.982-2.377,2.52-2.377h0.697
		c0.783,0,1.324,0.228,1.709,0.555c0.242,0.199,0.412,0.441,0.555,0.697c0.043,0.085,0.014,0.157-0.071,0.2l-0.755,0.37
		c-0.07,0.042-0.127,0.014-0.17-0.057c-0.299-0.513-0.797-0.783-1.268-0.783h-0.697c-0.769,0-1.395,0.612-1.395,1.395v4.498
		c0,0.754,0.611,1.395,1.395,1.395h0.441c0.754,0,1.395-0.626,1.395-1.395v-1.039c0-0.1-0.042-0.143-0.143-0.143h-1.451
		c-0.1,0-0.143-0.042-0.143-0.142v-0.698c0-0.1,0.043-0.142,0.143-0.142h2.576c0.1,0,0.143,0.042,0.143,0.142v2.021
		C143.243,16.74,142.261,17.722,140.724,17.722z"/>
	<path d="M146.005,17.58h-0.84c-0.1,0-0.143-0.043-0.143-0.143V8.754c0-0.1,0.043-0.142,0.143-0.142h0.84
		c0.1,0,0.143,0.042,0.143,0.142v8.683C146.147,17.537,146.104,17.58,146.005,17.58z"/>
	<path d="M150.333,17.722c-1.51,0-2.52-0.996-2.52-2.363v-1.907c0-1.352,0.981-2.363,2.52-2.363c1.508,0,2.52,0.996,2.52,2.363
		v1.907C152.853,16.711,151.87,17.722,150.333,17.722z M151.728,13.38c0-0.726-0.584-1.324-1.395-1.324
		c-0.883,0-1.396,0.626-1.396,1.395v1.979c0,0.726,0.583,1.324,1.396,1.324c0.882,0,1.395-0.626,1.395-1.395V13.38z"/>
	<path d="M157.037,17.58c-0.356,0-0.882-0.185-1.296-0.626c-0.113-0.114-0.241-0.071-0.241,0.1v0.384c0,0.1-0.043,0.143-0.143,0.143
		h-0.697c-0.1,0-0.143-0.043-0.143-0.143V8.754c0-0.1,0.043-0.142,0.143-0.142h0.84c0.1,0,0.142,0.042,0.142,0.142v2.975
		c0,0.156,0.143,0.213,0.242,0.1c0.385-0.427,0.883-0.598,1.295-0.598c1.324,0,2.393,0.968,2.393,2.363v1.608
		C159.571,16.597,158.574,17.58,157.037,17.58z M158.446,13.594c0-0.755-0.641-1.395-1.409-1.395s-1.396,0.626-1.396,1.395v1.608
		c0,0.754,0.627,1.395,1.396,1.395c0.755,0,1.409-0.626,1.409-1.395V13.594z"/>
	<path d="M165.62,17.58h-0.684c-0.099,0-0.142-0.043-0.142-0.143v-0.398c0-0.157-0.143-0.228-0.257-0.114
		c-0.412,0.413-0.91,0.655-1.238,0.655h-0.555c-1.025,0-1.85-0.684-1.85-1.723v-0.085c0-1.039,0.824-1.708,1.85-1.708h1.751
		c0.1,0,0.142-0.042,0.142-0.142v-0.484c0-0.769-0.625-1.367-1.408-1.367c-0.471,0-0.939,0.242-1.253,0.783
		c-0.042,0.071-0.114,0.1-0.199,0.057l-0.726-0.384c-0.086-0.042-0.114-0.114-0.057-0.199c0.156-0.256,0.341-0.498,0.583-0.683
		c0.398-0.328,0.939-0.541,1.651-0.541c1.537,0,2.533,0.925,2.533,2.334v4C165.763,17.537,165.72,17.58,165.62,17.58z
		 M164.638,15.032c0-0.1-0.042-0.143-0.142-0.143h-1.751c-0.412,0-0.74,0.328-0.74,0.74v0.228c0,0.399,0.328,0.74,0.74,0.74h0.555
		c0.613,0,1.168-0.555,1.338-1.125V15.032z"/>
	<path d="M168.554,17.58h-0.84c-0.1,0-0.143-0.043-0.143-0.143V8.754c0-0.1,0.043-0.142,0.143-0.142h0.84
		c0.1,0,0.142,0.042,0.142,0.142v8.683C168.695,17.537,168.653,17.58,168.554,17.58z"/>
	<path d="M176.154,17.58h-2.804c-0.1,0-0.143-0.043-0.143-0.143V8.754c0-0.1,0.043-0.142,0.143-0.142h2.804
		c1.537,0,2.52,0.982,2.52,2.519v0.143c0,0.555-0.441,1.324-0.968,1.637c-0.129,0.071-0.129,0.171-0.015,0.242
		c0.483,0.299,0.982,1.01,0.982,1.708v0.213C178.674,16.611,177.691,17.58,176.154,17.58z M177.563,10.989
		c0-0.754-0.627-1.395-1.409-1.395h-1.694c-0.1,0-0.142,0.043-0.142,0.143v2.662c0,0.1,0.042,0.142,0.142,0.142h1.694
		c0.769,0,1.409-0.626,1.409-1.409V10.989z M177.563,14.903c0-0.754-0.627-1.38-1.409-1.38h-1.694c-0.1,0-0.142,0.042-0.142,0.142
		v2.79c0,0.1,0.042,0.142,0.142,0.142h1.694c0.769,0,1.409-0.612,1.409-1.395V14.903z"/>
	<path d="M180.895,9.879c-0.398,0-0.698-0.313-0.698-0.712c0-0.384,0.314-0.697,0.698-0.697c0.398,0,0.712,0.299,0.712,0.697
		C181.606,9.552,181.293,9.879,180.895,9.879z M181.321,17.58h-0.84c-0.1,0-0.143-0.043-0.143-0.143v-6.063
		c0-0.1,0.043-0.143,0.143-0.143h0.84c0.1,0,0.143,0.043,0.143,0.143v6.063C181.464,17.537,181.421,17.58,181.321,17.58z"/>
	<path d="M185.649,17.722c-1.51,0-2.52-0.996-2.52-2.363v-1.907c0-1.352,0.981-2.363,2.52-2.363c1.508,0,2.519,0.996,2.519,2.363
		v1.907C188.168,16.711,187.187,17.722,185.649,17.722z M187.044,13.38c0-0.726-0.584-1.324-1.395-1.324
		c-0.883,0-1.396,0.626-1.396,1.395v1.979c0,0.726,0.583,1.324,1.396,1.324c0.882,0,1.395-0.626,1.395-1.395V13.38z"/>
	<path d="M194.517,17.58h-0.684c-0.1,0-0.142-0.043-0.142-0.143v-0.398c0-0.157-0.142-0.213-0.257-0.1
		c-0.427,0.456-0.939,0.641-1.295,0.641c-1.537,0-2.52-0.982-2.52-2.377v-1.608c0-1.395,1.039-2.363,2.377-2.363
		c0.428,0,0.926,0.171,1.296,0.612c0.1,0.128,0.241,0.071,0.241-0.1V8.754c0-0.1,0.043-0.142,0.143-0.142h0.84
		c0.1,0,0.143,0.042,0.143,0.142v8.683C194.659,17.537,194.616,17.58,194.517,17.58z M193.534,13.594
		c0-0.755-0.625-1.395-1.395-1.395c-0.769,0-1.395,0.626-1.395,1.395v1.608c0,0.754,0.626,1.395,1.395,1.395
		c0.754,0,1.395-0.626,1.395-1.395V13.594z"/>
	<path d="M197.094,9.879c-0.398,0-0.698-0.313-0.698-0.712c0-0.384,0.314-0.697,0.698-0.697c0.398,0,0.712,0.299,0.712,0.697
		C197.806,9.552,197.492,9.879,197.094,9.879z M197.521,17.58h-0.84c-0.1,0-0.143-0.043-0.143-0.143v-6.063
		c0-0.1,0.043-0.143,0.143-0.143h0.84c0.1,0,0.143,0.043,0.143,0.143v6.063C197.663,17.537,197.62,17.58,197.521,17.58z"/>
	<path d="M202.091,17.494c-0.029,0.057-0.072,0.085-0.129,0.085h-0.684c-0.057,0-0.1-0.029-0.127-0.085l-2.463-6.063
		c-0.057-0.128,0-0.2,0.128-0.2h0.883c0.057,0,0.099,0.029,0.128,0.085l1.608,4.071c0.028,0.071,0.143,0.427,0.157,0.555h0.057
		c0.014-0.128,0.128-0.484,0.156-0.555l1.594-4.071c0.029-0.057,0.072-0.085,0.129-0.085h0.882c0.128,0,0.185,0.071,0.128,0.2
		L202.091,17.494z"/>
	<path d="M210.247,14.533h-3.63c-0.1,0-0.143,0.043-0.143,0.143v0.669c0,0.754,0.626,1.395,1.396,1.395
		c0.483,0,0.967-0.285,1.266-0.812c0.043-0.071,0.114-0.1,0.186-0.057l0.754,0.384c0.086,0.042,0.1,0.1,0.058,0.185
		c-0.128,0.228-0.271,0.455-0.47,0.64c-0.385,0.384-0.939,0.641-1.793,0.641c-1.538,0-2.52-0.968-2.52-2.377v-1.893
		c0-1.352,0.981-2.363,2.52-2.363c1.508,0,2.52,0.996,2.52,2.363v0.939C210.39,14.491,210.347,14.533,210.247,14.533z
		 M209.265,13.38c0-0.726-0.584-1.324-1.395-1.324c-0.883,0-1.396,0.626-1.396,1.395v0.157c0,0.071,0.071,0.085,0.143,0.085h2.505
		c0.1,0,0.143-0.043,0.143-0.143V13.38z"/>
	<path d="M214.83,12.413c-0.071-0.028-0.171-0.042-0.256-0.042c-0.782,0-1.396,0.526-1.396,1.366v3.701
		c0,0.1-0.042,0.143-0.142,0.143h-0.84c-0.1,0-0.143-0.043-0.143-0.143v-6.063c0-0.1,0.043-0.143,0.143-0.143h0.697
		c0.1,0,0.143,0.043,0.143,0.143v0.583c0,0.157,0.142,0.228,0.241,0.1c0.371-0.526,0.854-0.826,1.296-0.826h0.313
		c0.1,0,0.128,0.057,0.128,0.157v0.896C215.016,12.398,214.944,12.455,214.83,12.413z"/>
	<path d="M218.261,17.722h-0.427c-0.797,0-1.324-0.228-1.694-0.555c-0.241-0.199-0.412-0.456-0.541-0.697
		c-0.042-0.085-0.014-0.142,0.071-0.185l0.684-0.342c0.085-0.042,0.143-0.014,0.185,0.057c0.257,0.47,0.769,0.797,1.296,0.797h0.427
		c0.797,0,1.195-0.456,1.195-0.982c0-0.698-0.925-0.797-1.921-0.997c-0.939-0.185-1.95-0.598-1.95-1.793
		c0-1.295,0.968-1.936,2.249-1.936h0.427c0.74,0,1.267,0.199,1.637,0.498c0.271,0.213,0.456,0.47,0.598,0.726
		c0.043,0.085,0.015,0.157-0.071,0.199l-0.683,0.342c-0.071,0.042-0.143,0.014-0.186-0.057c-0.284-0.47-0.74-0.783-1.295-0.783
		h-0.427c-0.825,0-1.153,0.398-1.153,0.868c0,0.783,0.926,0.854,1.894,1.053c1.081,0.228,1.992,0.583,1.992,1.736
		C220.566,16.796,219.784,17.722,218.261,17.722z"/>
	<path d="M222.617,9.879c-0.398,0-0.698-0.313-0.698-0.712c0-0.384,0.313-0.697,0.698-0.697c0.398,0,0.711,0.299,0.711,0.697
		C223.328,9.552,223.016,9.879,222.617,9.879z M223.044,17.58h-0.84c-0.1,0-0.143-0.043-0.143-0.143v-6.063
		c0-0.1,0.043-0.143,0.143-0.143h0.84c0.1,0,0.143,0.043,0.143,0.143v6.063C223.187,17.537,223.144,17.58,223.044,17.58z"/>
	<path d="M227.499,17.708c-0.583-0.057-1.067-0.256-1.438-0.541c-0.526-0.427-0.825-1.053-0.825-1.822v-3.003
		c0-0.1-0.043-0.142-0.143-0.142h-0.797c-0.1,0-0.143-0.043-0.143-0.143v-0.384l1.623-1.708c0.014-0.014,0.07-0.042,0.1-0.042h0.341
		c0.101,0,0.143,0.042,0.143,0.142v1.025c0,0.1,0.043,0.142,0.143,0.142h1.011c0.1,0,0.142,0.043,0.142,0.143v0.683
		c0,0.1-0.042,0.143-0.142,0.143h-1.011c-0.1,0-0.143,0.042-0.143,0.142v3.003c0,0.655,0.456,1.224,1.182,1.366
		c0.071,0.015,0.113,0.057,0.113,0.143v0.712C227.655,17.665,227.599,17.722,227.499,17.708z"/>
	<path d="M231.314,20.924c-0.826,0-1.381-0.256-1.779-0.626c-0.199-0.199-0.356-0.413-0.484-0.64
		c-0.042-0.085-0.028-0.157,0.058-0.199l0.754-0.371c0.086-0.042,0.143-0.014,0.186,0.057c0.284,0.513,0.782,0.797,1.267,0.797
		c0.769,0,1.409-0.612,1.409-1.395V17.11c0-0.157-0.157-0.228-0.256-0.1c-0.313,0.385-0.727,0.57-1.153,0.57
		c-1.537,0-2.52-0.982-2.52-2.377v-3.829c0-0.1,0.043-0.143,0.143-0.143h0.84c0.1,0,0.143,0.043,0.143,0.143v3.829
		c0,0.754,0.626,1.395,1.395,1.395c0.868,0,1.409-0.726,1.409-1.395v-3.829c0-0.1,0.042-0.143,0.143-0.143h0.825
		c0.1,0,0.143,0.043,0.143,0.143v7.017C233.834,19.843,232.994,20.924,231.314,20.924z"/>
	<path d="M138.944,34.662h-0.825c-0.101,0-0.143-0.042-0.143-0.142v-8.683c0-0.1,0.042-0.143,0.143-0.143h0.825
		c0.1,0,0.143,0.043,0.143,0.143v8.683C139.087,34.619,139.044,34.662,138.944,34.662z"/>
	<path d="M146.019,34.662h-0.84c-0.1,0-0.143-0.042-0.143-0.142v-3.843c0-0.754-0.641-1.395-1.408-1.395
		c-0.77,0-1.395,0.626-1.395,1.395v3.843c0,0.1-0.043,0.142-0.143,0.142h-0.84c-0.1,0-0.143-0.042-0.143-0.142v-6.064
		c0-0.1,0.043-0.142,0.143-0.142h0.697c0.1,0,0.143,0.042,0.143,0.142v0.37c0,0.157,0.143,0.228,0.241,0.1
		c0.385-0.455,0.854-0.612,1.296-0.612c1.537,0,2.533,0.968,2.533,2.363v3.843C146.161,34.619,146.118,34.662,146.019,34.662z"/>
	<path d="M151.115,26.449c-0.028,0.071-0.071,0.1-0.142,0.1c-0.129-0.014-0.199-0.014-0.3-0.014c-0.769,0-1.395,0.612-1.395,1.395
		v0.896c0,0.1,0.042,0.143,0.142,0.143h1.025c0.1,0,0.143,0.042,0.143,0.142v0.683c0,0.1-0.043,0.143-0.143,0.143h-1.025
		c-0.1,0-0.142,0.042-0.142,0.142v4.441c0,0.1-0.043,0.142-0.143,0.142h-0.825c-0.1,0-0.143-0.042-0.143-0.142v-4.441
		c0-0.1-0.043-0.142-0.143-0.142h-0.37c-0.1,0-0.142-0.043-0.142-0.143V29.11c0-0.1,0.042-0.142,0.142-0.142h0.37
		c0.1,0,0.143-0.043,0.143-0.143v-0.754c0-1.395,1.11-2.519,2.505-2.519c0.185,0,0.342,0.014,0.556,0.028
		c0.113,0.014,0.156,0.071,0.113,0.185L151.115,26.449z"/>
	<path d="M153.991,34.804c-1.51,0-2.52-0.996-2.52-2.362v-1.908c0-1.352,0.981-2.363,2.52-2.363c1.508,0,2.52,0.997,2.52,2.363
		v1.908C156.511,33.793,155.528,34.804,153.991,34.804z M155.386,30.463c0-0.726-0.584-1.324-1.395-1.324
		c-0.883,0-1.396,0.626-1.396,1.395v1.979c0,0.726,0.583,1.324,1.396,1.324c0.882,0,1.395-0.626,1.395-1.395V30.463z"/>
	<path d="M160.952,29.495c-0.072-0.028-0.172-0.042-0.257-0.042c-0.782,0-1.396,0.526-1.396,1.366v3.701
		c0,0.1-0.042,0.142-0.142,0.142h-0.84c-0.1,0-0.143-0.042-0.143-0.142v-6.064c0-0.1,0.043-0.142,0.143-0.142h0.697
		c0.1,0,0.143,0.042,0.143,0.142v0.583c0,0.157,0.142,0.228,0.241,0.1c0.371-0.526,0.854-0.825,1.296-0.825h0.313
		c0.1,0,0.128,0.057,0.128,0.157v0.896C161.137,29.48,161.065,29.538,160.952,29.495z"/>
	<path d="M170.317,34.662h-0.84c-0.1,0-0.143-0.042-0.143-0.142v-3.843c0-0.769-0.654-1.395-1.252-1.395
		c-0.556,0-1.253,0.612-1.253,1.395v3.843c0,0.1-0.042,0.142-0.143,0.142h-0.84c-0.099,0-0.142-0.042-0.142-0.142v-3.843
		c0-0.769-0.655-1.395-1.253-1.395c-0.569,0-1.253,0.612-1.253,1.395v3.843c0,0.1-0.043,0.142-0.143,0.142h-0.84
		c-0.1,0-0.143-0.042-0.143-0.142v-6.064c0-0.1,0.043-0.142,0.143-0.142h0.697c0.101,0,0.143,0.042,0.143,0.142v0.37
		c0,0.157,0.114,0.228,0.229,0.114c0.398-0.441,0.883-0.626,1.309-0.626c0.514,0,1.154,0.213,1.566,0.74
		c0.071,0.1,0.156,0.085,0.228,0c0.456-0.513,1.054-0.74,1.694-0.74c1.352,0,2.377,0.968,2.377,2.363v3.843
		C170.46,34.619,170.417,34.662,170.317,34.662z"/>
	<path d="M176.652,34.662h-0.684c-0.099,0-0.142-0.042-0.142-0.142v-0.399c0-0.156-0.143-0.228-0.257-0.114
		c-0.413,0.413-0.911,0.655-1.238,0.655h-0.555c-1.024,0-1.851-0.683-1.851-1.722v-0.085c0-1.039,0.826-1.708,1.851-1.708h1.751
		c0.1,0,0.142-0.043,0.142-0.143V30.52c0-0.769-0.626-1.366-1.409-1.366c-0.469,0-0.939,0.242-1.252,0.783
		c-0.043,0.071-0.114,0.1-0.199,0.057l-0.727-0.384c-0.086-0.043-0.113-0.114-0.057-0.2c0.156-0.256,0.342-0.498,0.584-0.683
		c0.398-0.327,0.939-0.541,1.65-0.541c1.537,0,2.533,0.925,2.533,2.334v4C176.794,34.619,176.752,34.662,176.652,34.662z
		 M175.67,32.114c0-0.1-0.042-0.143-0.142-0.143h-1.751c-0.413,0-0.741,0.328-0.741,0.74v0.228c0,0.398,0.328,0.74,0.741,0.74h0.555
		c0.612,0,1.167-0.555,1.338-1.125V32.114z"/>
	<path d="M181.036,34.79c-0.583-0.057-1.067-0.256-1.438-0.541c-0.526-0.427-0.825-1.054-0.825-1.822v-3.003
		c0-0.1-0.043-0.143-0.142-0.143h-0.798c-0.1,0-0.143-0.043-0.143-0.143v-0.384l1.623-1.708c0.015-0.014,0.071-0.042,0.1-0.042
		h0.341c0.101,0,0.143,0.042,0.143,0.142v1.025c0,0.1,0.043,0.143,0.143,0.143h1.011c0.1,0,0.143,0.042,0.143,0.142v0.683
		c0,0.1-0.043,0.143-0.143,0.143h-1.011c-0.1,0-0.143,0.043-0.143,0.143v3.003c0,0.655,0.456,1.224,1.182,1.367
		c0.071,0.014,0.114,0.057,0.114,0.142v0.712C181.193,34.747,181.136,34.804,181.036,34.79z"/>
	<path d="M182.958,26.961c-0.398,0-0.697-0.313-0.697-0.711c0-0.384,0.313-0.697,0.697-0.697c0.399,0,0.713,0.299,0.713,0.697
		C183.671,26.634,183.357,26.961,182.958,26.961z M183.386,34.662h-0.84c-0.1,0-0.143-0.042-0.143-0.142v-6.064
		c0-0.1,0.043-0.142,0.143-0.142h0.84c0.1,0,0.143,0.042,0.143,0.142v6.064C183.528,34.619,183.485,34.662,183.386,34.662z"/>
	<path d="M187.713,34.804c-1.509,0-2.52-0.996-2.52-2.362v-1.908c0-1.352,0.982-2.363,2.52-2.363c1.509,0,2.52,0.997,2.52,2.363
		v1.908C190.232,33.793,189.25,34.804,187.713,34.804z M189.108,30.463c0-0.726-0.584-1.324-1.396-1.324
		c-0.882,0-1.396,0.626-1.396,1.395v1.979c0,0.726,0.584,1.324,1.396,1.324c0.882,0,1.396-0.626,1.396-1.395V30.463z"/>
	<path d="M196.81,34.662h-0.84c-0.101,0-0.143-0.042-0.143-0.142v-3.843c0-0.754-0.641-1.395-1.41-1.395
		c-0.768,0-1.395,0.626-1.395,1.395v3.843c0,0.1-0.043,0.142-0.143,0.142h-0.84c-0.1,0-0.143-0.042-0.143-0.142v-6.064
		c0-0.1,0.043-0.142,0.143-0.142h0.697c0.101,0,0.143,0.042,0.143,0.142v0.37c0,0.157,0.143,0.228,0.242,0.1
		c0.385-0.455,0.854-0.612,1.295-0.612c1.538,0,2.534,0.968,2.534,2.363v3.843C196.951,34.619,196.908,34.662,196.81,34.662z"/>
	<path d="M206.289,26.677h-3.644c-0.1,0-0.143,0.042-0.143,0.142v2.662c0,0.1,0.043,0.143,0.143,0.143h2.988
		c0.1,0,0.143,0.042,0.143,0.142v0.698c0,0.1-0.043,0.142-0.143,0.142h-2.988c-0.1,0-0.143,0.043-0.143,0.143v3.772
		c0,0.1-0.043,0.142-0.143,0.142h-0.825c-0.1,0-0.142-0.042-0.142-0.142v-8.683c0-0.1,0.042-0.143,0.142-0.143h4.754
		c0.1,0,0.143,0.043,0.143,0.143v0.697C206.432,26.634,206.389,26.677,206.289,26.677z"/>
	<path d="M211.343,34.662h-0.684c-0.1,0-0.143-0.042-0.143-0.142v-0.399c0-0.156-0.142-0.228-0.256-0.114
		c-0.412,0.413-0.91,0.655-1.238,0.655h-0.555c-1.025,0-1.851-0.683-1.851-1.722v-0.085c0-1.039,0.825-1.708,1.851-1.708h1.75
		c0.1,0,0.143-0.043,0.143-0.143V30.52c0-0.769-0.626-1.366-1.408-1.366c-0.471,0-0.939,0.242-1.254,0.783
		c-0.042,0.071-0.113,0.1-0.199,0.057l-0.725-0.384c-0.086-0.043-0.115-0.114-0.058-0.2c0.156-0.256,0.342-0.498,0.583-0.683
		c0.398-0.327,0.939-0.541,1.652-0.541c1.537,0,2.533,0.925,2.533,2.334v4C211.485,34.619,211.442,34.662,211.343,34.662z
		 M210.36,32.114c0-0.1-0.043-0.143-0.143-0.143h-1.75c-0.413,0-0.74,0.328-0.74,0.74v0.228c0,0.398,0.327,0.74,0.74,0.74h0.555
		c0.612,0,1.168-0.555,1.338-1.125V32.114z"/>
	<path d="M217.321,34.234c-0.385,0.342-0.925,0.569-1.723,0.569c-1.537,0-2.52-1.024-2.52-2.377v-1.893
		c0-1.352,0.982-2.363,2.52-2.363c0.798,0,1.338,0.228,1.723,0.555c0.228,0.199,0.398,0.427,0.541,0.683
		c0.043,0.085,0.014,0.157-0.071,0.2l-0.754,0.384c-0.071,0.043-0.129,0.015-0.171-0.057c-0.299-0.498-0.783-0.797-1.268-0.797
		c-0.882,0-1.395,0.626-1.395,1.395v1.893c0,0.769,0.513,1.395,1.395,1.395c0.484,0,0.969-0.285,1.268-0.812
		c0.042-0.071,0.113-0.1,0.185-0.057l0.755,0.384c0.085,0.043,0.1,0.1,0.057,0.185C217.72,33.779,217.549,34.021,217.321,34.234z"/>
	<path d="M219.799,26.961c-0.398,0-0.697-0.313-0.697-0.711c0-0.384,0.312-0.697,0.697-0.697c0.398,0,0.712,0.299,0.712,0.697
		C220.511,26.634,220.197,26.961,219.799,26.961z M220.226,34.662h-0.84c-0.1,0-0.143-0.042-0.143-0.142v-6.064
		c0-0.1,0.043-0.142,0.143-0.142h0.84c0.1,0,0.143,0.042,0.143,0.142v6.064C220.368,34.619,220.325,34.662,220.226,34.662z"/>
	<path d="M223.229,34.662h-0.84c-0.1,0-0.143-0.042-0.143-0.142v-8.683c0-0.1,0.043-0.143,0.143-0.143h0.84
		c0.1,0,0.143,0.043,0.143,0.143v8.683C223.372,34.619,223.329,34.662,223.229,34.662z"/>
	<path d="M225.806,26.961c-0.398,0-0.697-0.313-0.697-0.711c0-0.384,0.313-0.697,0.697-0.697c0.398,0,0.712,0.299,0.712,0.697
		C226.518,26.634,226.204,26.961,225.806,26.961z M226.233,34.662h-0.84c-0.101,0-0.143-0.042-0.143-0.142v-6.064
		c0-0.1,0.042-0.142,0.143-0.142h0.84c0.099,0,0.142,0.042,0.142,0.142v6.064C226.375,34.619,226.332,34.662,226.233,34.662z"/>
	<path d="M230.688,34.79c-0.584-0.057-1.067-0.256-1.438-0.541c-0.526-0.427-0.826-1.054-0.826-1.822v-3.003
		c0-0.1-0.042-0.143-0.142-0.143h-0.797c-0.101,0-0.143-0.043-0.143-0.143v-0.384l1.622-1.708c0.015-0.014,0.071-0.042,0.1-0.042
		h0.342c0.1,0,0.143,0.042,0.143,0.142v1.025c0,0.1,0.043,0.143,0.143,0.143h1.01c0.101,0,0.143,0.042,0.143,0.142v0.683
		c0,0.1-0.042,0.143-0.143,0.143h-1.01c-0.1,0-0.143,0.043-0.143,0.143v3.003c0,0.655,0.455,1.224,1.182,1.367
		c0.071,0.014,0.113,0.057,0.113,0.142v0.712C230.845,34.747,230.788,34.804,230.688,34.79z"/>
	<path d="M234.503,38.006c-0.825,0-1.38-0.256-1.779-0.626c-0.199-0.2-0.355-0.413-0.483-0.641
		c-0.043-0.085-0.028-0.157,0.057-0.199l0.755-0.37c0.085-0.043,0.142-0.014,0.185,0.057c0.285,0.512,0.783,0.797,1.267,0.797
		c0.769,0,1.409-0.612,1.409-1.395v-1.438c0-0.157-0.156-0.228-0.256-0.1c-0.313,0.384-0.726,0.569-1.153,0.569
		c-1.537,0-2.52-0.982-2.52-2.377v-3.829c0-0.1,0.043-0.142,0.143-0.142h0.84c0.1,0,0.143,0.042,0.143,0.142v3.829
		c0,0.754,0.626,1.395,1.395,1.395c0.868,0,1.409-0.726,1.409-1.395v-3.829c0-0.1,0.043-0.142,0.143-0.142h0.825
		c0.1,0,0.143,0.042,0.143,0.142v7.018C237.022,36.925,236.183,38.006,234.503,38.006z"/>
</g>
</svg>
